<?xml version="1.0" standalone="no"?>
<!DOCTYPE svg PUBLIC "-//W3C//DTD SVG 20010904//EN"
 "http://www.w3.org/TR/2001/REC-SVG-20010904/DTD/svg10.dtd">
<svg version="1.0" xmlns="http://www.w3.org/2000/svg"
 width="525.000000pt" height="96.000000pt" viewBox="0 0 525.000000 96.000000"
 preserveAspectRatio="xMidYMid meet">

<g transform="translate(0.000000,96.000000) scale(0.100000,-0.100000)"
fill="#dc3545" stroke="none">
<path d="M4945 940 c-66 -4 -121 -8 -122 -9 -1 0 -4 -9 -6 -18 -4 -16 -5 -16
-6 1 -1 17 -8 18 -108 12 -60 -3 -164 -8 -233 -12 -69 -3 -197 -10 -285 -15
-88 -5 -168 -10 -178 -10 -15 0 -16 -3 -6 -15 14 -18 8 -27 -14 -18 -9 3 -13
12 -10 20 4 12 1 13 -20 3 -17 -7 -31 -8 -42 -1 -16 8 -182 6 -213 -4 -7 -2
-99 -6 -204 -10 -186 -5 -238 -13 -238 -34 0 -5 -16 -10 -35 -10 -19 0 -35 5
-35 10 0 6 11 8 26 4 19 -5 25 -4 20 5 -8 12 -94 15 -145 5 -17 -4 -28 -10
-25 -15 3 -5 1 -9 -5 -9 -5 0 -13 5 -17 11 -5 8 -42 9 -133 3 -69 -4 -142 -8
-161 -9 -19 0 -45 -6 -58 -13 -12 -7 -26 -10 -31 -7 -5 3 -11 0 -13 -7 -3 -7
-10 -8 -17 -4 -11 7 -11 10 0 17 8 5 -44 7 -126 3 -101 -5 -143 -10 -151 -20
-13 -17 -38 -19 -28 -3 8 13 -179 7 -546 -17 -118 -8 -226 -14 -240 -14 -14 0
-108 -5 -210 -10 -102 -6 -232 -12 -290 -15 -58 -3 -184 -10 -280 -15 -96 -6
-267 -15 -380 -20 -187 -9 -206 -12 -219 -30 -16 -23 -36 -27 -28 -6 7 18 -11
22 -74 18 -34 -3 -49 -8 -49 -18 0 -8 5 -14 11 -14 8 0 7 -5 -1 -15 -7 -9 -11
-17 -9 -19 2 -2 74 0 159 5 85 4 202 10 260 13 58 3 206 10 330 16 124 7 232
14 240 16 8 3 65 7 125 8 299 9 420 18 433 34 8 11 12 12 12 3 0 -14 -24 -15
520 9 211 9 283 16 309 28 26 12 36 13 39 4 6 -19 79 -15 91 6 6 9 11 11 11 5
0 -9 17 -13 50 -13 42 0 48 2 43 17 -4 11 -3 14 5 9 7 -4 12 -2 12 3 0 16 28
13 37 -2 10 -17 53 -29 53 -15 0 6 9 8 20 5 11 -3 20 -1 20 4 0 5 7 9 15 9 7
0 18 8 24 18 8 14 12 15 22 5 11 -11 10 -13 -3 -13 -8 0 -22 -7 -29 -17 -13
-15 -9 -16 50 -10 35 4 90 7 122 7 52 0 59 2 59 20 0 11 4 20 9 20 5 0 7 -9 4
-21 -5 -19 -3 -20 53 -15 33 4 154 11 269 17 193 9 537 28 543 29 1 0 2 9 2
20 0 11 6 20 14 20 8 0 18 -9 21 -20 7 -23 25 -24 80 -5 48 18 48 18 40 4 -5
-7 28 -9 107 -6 62 3 133 5 156 6 24 0 50 5 58 12 8 6 14 8 14 3 0 -10 78 -8
310 7 91 6 174 11 185 11 10 -1 25 4 32 10 7 6 13 7 13 2 0 -9 142 -8 218 2
39 5 42 8 42 35 l0 29 -72 -2 c-40 -1 -127 -5 -193 -8z m-345 -60 c0 -5 -5
-10 -11 -10 -5 0 -7 5 -4 10 3 6 8 10 11 10 2 0 4 -4 4 -10z m-490 -14 c0 -3
-4 -8 -10 -11 -5 -3 -10 -1 -10 4 0 6 5 11 10 11 6 0 10 -2 10 -4z m-790 -46
c0 -5 -5 -10 -11 -10 -5 0 -7 5 -4 10 3 6 8 10 11 10 2 0 4 -4 4 -10z m-587
-13 c3 -8 -1 -14 -9 -14 -15 0 -18 9 -7 20 9 9 10 9 16 -6z m377 -2 c0 -8 -2
-15 -4 -15 -2 0 -6 7 -10 15 -3 8 -1 15 4 15 6 0 10 -7 10 -15z m-640 -29 c0
-3 -4 -8 -10 -11 -5 -3 -10 -1 -10 4 0 6 5 11 10 11 6 0 10 -2 10 -4z m-2170
-121 c0 -8 -4 -15 -9 -15 -5 0 -14 7 -21 15 -10 13 -9 15 9 15 12 0 21 -6 21
-15z"/>
<path d="M4886 823 c-6 -14 -9 -15 -16 -4 -20 34 -105 -32 -136 -104 -23 -56
-21 -171 4 -227 35 -79 113 -128 204 -128 70 0 88 7 88 32 0 16 5 18 34 13 29
-6 36 -3 56 25 45 64 62 171 39 253 -5 20 -14 37 -20 37 -6 0 -7 5 -4 10 11
17 -67 87 -110 99 -63 17 -132 14 -139 -6z m49 -3 c3 -5 -1 -10 -10 -10 -9 0
-13 5 -10 10 3 6 8 10 10 10 2 0 7 -4 10 -10z m65 -67 c53 -37 67 -64 74 -138
8 -83 -6 -120 -58 -160 -39 -29 -56 -31 -120 -9 -32 11 -50 24 -56 40 -8 20
-13 22 -35 14 -14 -5 -25 -6 -25 0 0 4 8 10 17 12 14 2 17 17 17 88 1 93 16
128 65 155 36 20 92 18 121 -2z m100 -33 c0 -5 -7 -10 -16 -10 -8 0 -12 5 -9
10 3 6 10 10 16 10 5 0 9 -4 9 -10z m-310 -120 c0 -5 -4 -10 -10 -10 -5 0 -10
5 -10 10 0 6 5 10 10 10 6 0 10 -4 10 -10z"/>
<path d="M4520 796 c-5 -14 -14 -26 -20 -26 -14 0 -12 27 3 33 6 3 0 6 -15 6
-15 1 -38 -4 -52 -10 -19 -9 -29 -9 -39 -1 -8 7 -33 9 -65 5 -39 -4 -53 -10
-58 -25 -9 -31 11 -43 84 -48 l67 -5 7 -115 c4 -63 8 -142 8 -175 2 -64 19
-95 51 -95 10 0 21 5 25 12 4 7 3 8 -4 4 -7 -4 -12 -2 -12 3 0 6 9 11 21 11
18 0 20 4 14 27 -3 15 -12 31 -18 35 -9 6 -8 8 1 8 11 0 12 29 6 150 -6 136
-5 150 10 150 9 0 26 6 37 13 17 10 23 10 26 0 3 -7 11 -13 19 -13 9 0 13 4
10 9 -3 5 1 8 10 7 9 0 21 7 27 16 18 27 -5 41 -73 46 -57 4 -60 3 -70 -22z
m-55 -16 c3 -5 1 -10 -4 -10 -6 0 -11 5 -11 10 0 6 2 10 4 10 3 0 8 -4 11 -10z
m-70 -30 c-3 -5 -11 -10 -16 -10 -6 0 -7 5 -4 10 3 6 11 10 16 10 6 0 7 -4 4
-10z m90 -70 c3 -5 -1 -10 -9 -10 -9 0 -16 5 -16 10 0 6 4 10 9 10 6 0 13 -4
16 -10z m10 -60 c3 -5 -1 -10 -9 -10 -9 0 -16 5 -16 10 0 6 4 10 9 10 6 0 13
-4 16 -10z m-15 -120 c0 -5 -2 -10 -4 -10 -3 0 -8 5 -11 10 -3 6 -1 10 4 10 6
0 11 -4 11 -10z m7 -46 c-3 -3 -12 -4 -19 -1 -8 3 -5 6 6 6 11 1 17 -2 13 -5z"/>
<path d="M3982 783 c-35 -3 -50 -8 -46 -15 5 -7 -2 -9 -20 -4 -19 5 -26 3 -26
-9 0 -8 5 -15 11 -15 6 0 3 -8 -6 -17 -14 -13 -16 -27 -11 -67 3 -28 6 -63 6
-78 0 -22 4 -26 18 -21 16 6 16 5 0 -13 -21 -24 -20 -64 2 -64 8 0 32 11 52
25 26 18 50 25 82 25 34 0 46 4 46 15 0 8 5 15 10 15 6 0 10 -4 10 -10 0 -5 9
-10 20 -10 11 0 20 5 20 10 0 6 5 10 11 10 5 0 7 -5 4 -11 -5 -7 3 -9 21 -7
42 4 46 44 7 59 -38 14 -114 3 -106 -17 7 -18 3 -18 -35 2 -44 21 -67 15 -67
-18 1 -18 -7 -30 -22 -37 -19 -9 -23 -8 -23 5 0 9 5 12 13 8 6 -4 9 -4 5 1 -4
4 -2 15 4 23 7 8 12 44 13 81 l0 66 100 2 c137 4 145 6 142 44 l-2 30 -67 -3
c-36 -1 -64 -6 -62 -10 3 -4 0 -8 -5 -8 -6 0 -11 5 -11 10 0 6 -8 9 -17 8 -10
-1 -42 -3 -71 -5z m-32 -203 c0 -13 -5 -18 -14 -14 -8 3 -12 12 -9 20 8 21 23
17 23 -6z"/>
<path d="M3480 750 c-14 -14 -19 -32 -18 -65 0 -25 4 -48 9 -51 5 -3 6 3 2 12
-4 12 -2 15 8 12 8 -3 14 -11 14 -18 0 -7 9 -16 19 -20 16 -5 17 -8 6 -15 -9
-5 -15 -4 -18 3 -2 7 -11 12 -19 12 -13 0 -15 -15 -10 -111 4 -76 10 -115 19
-121 10 -7 10 -11 1 -15 -21 -8 -16 -61 7 -73 15 -8 26 -7 45 6 23 15 24 18
10 34 -14 16 -14 18 1 30 11 10 15 28 13 59 -2 63 -1 68 17 75 24 9 114 -33
114 -55 0 -9 11 -26 25 -37 14 -11 25 -26 25 -33 0 -8 10 -26 23 -40 18 -21
27 -24 55 -18 46 9 49 15 24 49 -12 16 -22 36 -22 43 0 8 -20 35 -45 59 -48
48 -53 58 -31 58 8 0 17 7 20 16 3 8 10 13 16 9 15 -9 50 55 50 92 0 45 -16
75 -54 101 -29 20 -44 22 -159 22 -113 0 -129 -2 -147 -20z m300 -46 c0 -11
-5 -14 -16 -10 -9 3 -18 6 -20 6 -3 0 -2 5 1 10 10 16 35 12 35 -6z m-47 -22
c29 -35 5 -112 -35 -112 -7 0 -2 -9 12 -20 24 -19 25 -20 3 -20 -13 0 -24 8
-28 21 -6 18 -14 20 -61 18 -29 -2 -57 0 -60 4 -10 10 -15 59 -9 94 6 35 14
38 105 38 45 0 58 -4 73 -23z m-213 -12 c0 -5 -5 -10 -11 -10 -5 0 -7 5 -4 10
3 6 8 10 11 10 2 0 4 -4 4 -10z m160 -135 c0 -8 -4 -15 -10 -15 -5 0 -10 7
-10 15 0 8 5 15 10 15 6 0 10 -7 10 -15z m-150 -205 c0 -5 -2 -10 -4 -10 -3 0
-8 5 -11 10 -3 6 -1 10 4 10 6 0 11 -4 11 -10z"/>
<path d="M3162 740 c-42 -17 -95 -64 -108 -97 -17 -40 -17 -43 0 -43 17 0 48
-39 41 -51 -9 -14 -43 3 -50 24 -6 18 -9 14 -17 -22 -19 -83 28 -206 96 -249
35 -22 52 -26 116 -26 82 0 120 14 120 44 0 11 6 20 13 20 8 0 14 6 14 14 0 8
-6 12 -14 9 -7 -3 -19 0 -26 6 -10 8 -19 6 -34 -4 -34 -24 -104 -26 -135 -4
-14 11 -31 19 -38 19 -7 0 -10 6 -7 14 3 8 0 22 -8 33 -12 15 -14 16 -20 3 -7
-20 -42 -23 -49 -5 -7 18 6 26 24 15 27 -17 55 41 31 65 -24 25 70 200 95 176
4 -3 3 5 -1 19 -7 24 -7 24 8 5 9 -11 19 -20 24 -20 22 0 93 -30 93 -39 1 -6
11 -24 24 -39 20 -24 26 -27 49 -18 15 6 27 17 27 25 0 29 -35 86 -53 86 -10
0 -15 5 -12 10 18 29 -145 53 -203 30z m238 -90 c0 -5 -4 -10 -10 -10 -5 0
-10 5 -10 10 0 6 5 10 10 10 6 0 10 -4 10 -10z m-305 -10 c3 -5 1 -10 -4 -10
-6 0 -11 5 -11 10 0 6 2 10 4 10 3 0 8 -4 11 -10z m265 0 c0 -5 -4 -10 -10
-10 -5 0 -10 5 -10 10 0 6 5 10 10 10 6 0 10 -4 10 -10z m57 -16 c-3 -3 -12
-4 -19 -1 -8 3 -5 6 6 6 11 1 17 -2 13 -5z m-340 -120 c-3 -3 -12 -4 -19 -1
-8 3 -5 6 6 6 11 1 17 -2 13 -5z m17 -113 c3 -5 -1 -11 -9 -15 -15 -6 -29 7
-18 18 9 9 21 8 27 -3z m63 -53 c-3 -8 -6 -5 -6 6 -1 11 2 17 5 13 3 -3 4 -12
1 -19z m183 2 c-20 -13 -43 -13 -35 0 3 6 16 10 28 10 18 0 19 -2 7 -10z m-75
-30 c3 -5 2 -10 -4 -10 -5 0 -13 5 -16 10 -3 6 -2 10 4 10 5 0 13 -4 16 -10z
m45 6 c0 -2 -7 -9 -15 -16 -13 -11 -14 -10 -9 4 5 14 24 23 24 12z"/>
<path d="M2855 720 c-4 -6 -14 -9 -22 -6 -8 3 -11 1 -8 -4 3 -6 1 -10 -4 -10
-6 0 -11 4 -11 9 0 4 -31 8 -70 9 -39 0 -68 -4 -64 -9 3 -5 -6 -9 -20 -9 -14
0 -28 -4 -31 -10 -3 -5 1 -10 9 -10 9 0 16 -5 16 -11 0 -6 -6 -9 -13 -6 -9 3
-13 -11 -15 -51 -4 -66 6 -134 19 -126 5 3 9 0 9 -5 0 -6 -4 -11 -10 -11 -15
0 -7 -185 10 -205 12 -14 32 -15 164 -9 83 4 157 11 164 17 19 15 14 45 -10
58 -14 8 -41 9 -82 4 -75 -10 -137 -13 -153 -7 -8 2 -13 22 -13 48 0 42 -1 43
-27 40 -16 -2 -22 -1 -15 1 6 2 12 9 12 14 0 5 6 9 14 9 8 0 16 5 18 11 2 5
38 13 81 16 42 3 77 9 77 13 0 4 7 10 14 13 10 4 13 1 9 -9 -7 -18 30 -19 46
0 30 36 -20 64 -92 51 -23 -4 -64 -6 -91 -5 l-49 1 6 -29 c5 -26 3 -31 -20
-37 -14 -3 -28 -4 -30 -1 -8 7 7 27 16 21 11 -6 21 46 21 111 l0 54 58 1 c171
3 205 11 186 41 -5 7 -9 18 -9 23 0 14 -82 18 -90 5z m-65 -40 c0 -5 -4 -10
-10 -10 -5 0 -10 5 -10 10 0 6 5 10 10 10 6 0 10 -4 10 -10z m-100 -166 c0 -8
-6 -14 -14 -14 -9 0 -12 7 -9 20 6 22 23 18 23 -6z m140 2 c0 -3 -4 -8 -10
-11 -5 -3 -10 -1 -10 4 0 6 5 11 10 11 6 0 10 -2 10 -4z m15 -26 c3 -5 1 -10
-4 -10 -6 0 -11 5 -11 10 0 6 2 10 4 10 3 0 8 -4 11 -10z m-169 -147 c-10 -10
-19 5 -10 18 6 11 8 11 12 0 2 -7 1 -15 -2 -18z m64 -47 c0 -3 -4 -8 -10 -11
-5 -3 -10 -1 -10 4 0 6 5 11 10 11 6 0 10 -2 10 -4z m180 -16 c0 -5 -2 -10 -4
-10 -3 0 -8 5 -11 10 -3 6 -1 10 4 10 6 0 11 -4 11 -10z"/>
<path d="M2327 696 c-48 -18 -76 -42 -94 -84 -17 -40 -8 -78 25 -115 31 -32
103 -58 110 -39 2 7 8 12 14 12 6 0 19 10 29 22 11 11 22 18 25 15 4 -4 -7
-20 -25 -36 l-31 -29 51 -12 c106 -26 101 -118 -8 -136 -38 -6 -45 -3 -70 23
-15 16 -37 42 -49 58 -19 28 -23 29 -49 17 -25 -11 -27 -16 -20 -50 13 -72 72
-112 167 -112 69 0 94 10 85 33 -3 9 1 18 9 21 26 10 36 7 30 -9 -4 -13 -2
-13 14 -5 33 18 50 52 50 102 0 67 -14 90 -72 117 -59 27 -135 41 -124 23 4
-7 1 -12 -7 -12 -8 0 -17 9 -20 20 -4 15 -14 20 -37 20 -35 0 -35 3 -2 87 17
43 46 68 40 36 -2 -13 5 -17 29 -19 17 -1 42 -9 54 -18 13 -9 38 -16 56 -16
25 0 31 -4 27 -15 -4 -8 -10 -13 -14 -10 -5 3 -11 1 -15 -5 -10 -16 23 -24 40
-10 17 14 19 48 5 70 -8 12 -13 13 -30 3 -26 -17 -52 -16 -76 2 -17 13 -15 14
36 15 l55 0 -25 21 c-19 15 -35 19 -67 16 -24 -3 -43 -1 -43 4 0 13 -29 10
-73 -5z m113 -15 c0 -5 -7 -11 -14 -14 -10 -4 -13 -1 -9 9 6 15 23 19 23 5z
m-40 -11 c0 -5 -5 -10 -11 -10 -5 0 -7 5 -4 10 3 6 8 10 11 10 2 0 4 -4 4 -10z
m-57 -155 c1 -5 -10 -11 -25 -13 -16 -2 -28 1 -28 6 0 6 10 8 23 5 18 -4 19
-3 7 7 -13 9 -12 11 3 8 10 -2 19 -7 20 -13z m164 -45 c-1 -11 -5 -20 -9 -20
-4 0 -8 2 -8 4 0 2 -3 11 -6 20 -4 10 -1 16 9 16 10 0 15 -8 14 -20z"/>
<path d="M1918 666 c-23 -17 -42 -66 -25 -66 8 0 8 -3 -2 -9 -7 -5 -30 -60
-51 -122 -21 -63 -48 -140 -59 -172 -23 -63 -18 -90 19 -102 30 -10 47 9 65
71 l16 54 78 0 c44 0 86 3 95 6 12 4 21 -6 35 -37 26 -60 53 -84 80 -69 25 13
29 71 6 94 -8 8 -15 19 -15 25 0 18 -131 305 -147 323 -19 21 -70 23 -95 4z
m65 -118 c38 -90 56 -142 51 -149 -5 -9 -134 -13 -134 -5 0 2 7 20 15 39 8 20
15 46 15 57 0 22 26 90 34 90 3 0 11 -15 19 -32z m-43 -172 c0 -3 -4 -8 -10
-11 -5 -3 -10 -1 -10 4 0 6 5 11 10 11 6 0 10 -2 10 -4z"/>
<path d="M1363 650 c-12 -5 -27 -18 -33 -29 -13 -25 -4 -67 16 -75 8 -3 14
-14 14 -25 0 -14 5 -19 15 -15 8 4 15 1 15 -5 0 -14 -27 -15 -35 -1 -3 6 -11
10 -16 10 -7 0 -8 -34 -3 -97 4 -54 7 -105 7 -113 0 -8 5 -19 11 -23 8 -6 7
-10 -1 -14 -7 -2 -13 -11 -13 -19 0 -9 4 -13 9 -10 5 4 7 -3 4 -15 -10 -35 27
-50 61 -24 15 12 17 17 7 29 -9 11 -10 20 -2 35 6 11 11 45 11 75 0 55 0 56
30 56 33 0 100 -29 100 -43 0 -17 41 -67 51 -62 5 4 6 -1 3 -10 -4 -10 4 -27
20 -44 23 -24 32 -27 59 -22 37 8 45 31 20 57 -10 9 -19 21 -19 26 -1 4 -2 13
-3 19 -2 18 -96 105 -119 111 -14 4 -23 0 -27 -11 -6 -14 -8 -14 -17 3 -8 15
-8 21 0 24 7 2 12 8 12 14 0 6 -23 8 -57 6 l-58 -3 -3 63 c-2 45 1 64 11 67
21 9 156 11 144 3 -9 -6 -8 -8 2 -8 8 0 19 -7 25 -16 13 -18 9 -84 -6 -84 -9
0 -38 -25 -38 -33 0 -3 14 -10 31 -18 28 -11 33 -10 45 6 8 10 14 15 14 10 0
-18 40 29 50 60 15 46 -6 103 -49 132 -31 21 -45 23 -150 22 -64 0 -126 -4
-138 -9z m282 -51 c10 -16 -1 -22 -26 -14 -17 6 -19 9 -8 16 19 12 26 11 34
-2z m-261 -44 c-4 -8 -8 -15 -10 -15 -2 0 -4 7 -4 15 0 8 4 15 10 15 5 0 7 -7
4 -15z m-14 -85 c0 -5 -5 -10 -11 -10 -5 0 -7 5 -4 10 3 6 8 10 11 10 2 0 4
-4 4 -10z m25 -250 c3 -5 -1 -10 -10 -10 -9 0 -13 5 -10 10 3 6 8 10 10 10 2
0 7 -4 10 -10z"/>
<path d="M1066 624 c-27 -10 -43 -11 -50 -4 -26 26 -126 3 -126 -29 0 -27 14
-34 90 -40 l65 -6 7 -115 c4 -63 8 -143 8 -178 2 -54 5 -65 25 -78 18 -12 29
-13 42 -5 17 10 17 10 -2 12 -16 1 -16 2 5 8 19 6 24 13 21 32 -1 13 -8 27
-15 31 -8 6 -7 8 2 8 11 0 12 29 6 150 -6 133 -5 150 9 150 9 0 22 7 31 15 13
13 16 13 30 0 8 -9 17 -11 21 -6 3 6 12 8 20 5 20 -8 40 33 24 52 -15 19 -160
18 -213 -2z m74 -3 c0 -5 -7 -14 -15 -21 -12 -10 -15 -10 -15 2 0 8 3 18 7 21
9 10 23 9 23 -2z m-50 -15 c0 -3 -4 -8 -10 -11 -5 -3 -10 -1 -10 4 0 6 5 11
10 11 6 0 10 -2 10 -4z m160 0 c0 -3 -4 -8 -10 -11 -5 -3 -10 -1 -10 4 0 6 5
11 10 11 6 0 10 -2 10 -4z m-230 -30 c0 -2 -7 -6 -15 -10 -8 -3 -15 -1 -15 4
0 6 7 10 15 10 8 0 15 -2 15 -4z m75 -36 c3 -5 1 -10 -4 -10 -6 0 -11 5 -11
10 0 6 2 10 4 10 3 0 8 -4 11 -10z m5 -40 c0 -5 -4 -10 -10 -10 -5 0 -10 5
-10 10 0 6 5 10 10 10 6 0 10 -4 10 -10z m15 -60 c3 -5 -1 -10 -9 -10 -9 0
-16 5 -16 10 0 6 4 10 9 10 6 0 13 -4 16 -10z m-20 -110 c3 -5 1 -10 -4 -10
-6 0 -11 5 -11 10 0 6 2 10 4 10 3 0 8 -4 11 -10z m12 -56 c-3 -3 -12 -4 -19
-1 -8 3 -5 6 6 6 11 1 17 -2 13 -5z"/>
<path d="M564 600 c-12 -5 -24 -21 -27 -37 -6 -26 9 -309 19 -380 7 -50 25
-54 175 -43 146 12 170 21 149 59 -11 21 -18 22 -123 20 l-112 -2 -8 104 c-4
57 -8 141 -10 187 -2 97 -13 112 -63 92z"/>
<path d="M450 580 c9 -16 8 -20 -5 -20 -8 0 -15 -4 -15 -10 0 -5 -5 -10 -10
-10 -6 0 -10 6 -9 13 1 6 1 19 0 27 -1 12 -4 11 -12 -3 -13 -22 2 -44 34 -50
18 -3 17 -5 -10 -12 -18 -4 -30 -11 -28 -15 3 -5 8 -58 11 -119 6 -110 -5
-170 -31 -171 -5 0 -1 -8 10 -16 18 -14 15 -15 -40 -9 -101 10 -114 15 -130
46 -13 24 -21 95 -24 216 -1 16 -9 23 -32 28 -17 4 -33 13 -36 21 -12 31 -20
10 -21 -56 -2 -57 1 -70 13 -70 8 0 15 -7 15 -16 0 -14 -2 -15 -17 -3 -15 12
-16 12 -10 -4 4 -10 7 -38 7 -61 0 -37 4 -45 28 -56 22 -11 24 -14 9 -18 -12
-2 -16 -9 -13 -19 3 -8 6 -16 6 -17 0 -1 25 -1 55 1 30 1 57 -3 61 -8 4 -6
-13 -7 -45 -3 -29 4 -51 3 -51 -3 0 -13 51 -40 90 -46 54 -9 166 16 196 44 35
33 57 116 50 192 -3 34 -5 79 -5 100 0 29 -4 37 -18 37 -11 0 -14 3 -7 8 10 6
11 41 5 95 -1 4 -8 7 -16 7 -13 0 -14 -4 -5 -20z m-10 -90 c0 -5 -8 -10 -17
-10 -15 0 -16 2 -3 10 19 12 20 12 20 0z m-280 -70 c0 -5 -12 -10 -27 -9 l-28
1 25 8 c14 4 26 8 28 9 1 1 2 -3 2 -9z"/>
<path d="M117 578 c-40 -22 -6 -78 51 -84 18 -2 22 2 22 25 0 46 -39 78 -73
59z"/>
<path d="M3965 480 c-3 -5 -21 -10 -38 -10 l-32 0 3 -52 c1 -29 5 -63 8 -76
l5 -23 160 4 c132 4 164 8 177 21 13 13 14 20 6 34 -10 15 -29 17 -140 17
l-129 0 3 42 c3 40 -10 64 -23 43z m-25 -65 c-7 -9 -15 -13 -17 -11 -7 7 7 26
19 26 6 0 6 -6 -2 -15z m60 -55 c0 -5 -4 -10 -10 -10 -5 0 -10 5 -10 10 0 6 5
10 10 10 6 0 10 -4 10 -10z"/>
<path d="M3400 456 c0 -8 -13 -24 -30 -36 -34 -24 -40 -45 -11 -37 11 3 29 -2
40 -10 19 -13 22 -12 31 12 12 30 12 47 4 69 -8 20 -34 21 -34 2z"/>
<path d="M5076 333 c-4 -4 -35 -6 -69 -5 -34 1 -170 -4 -301 -12 -175 -11
-241 -18 -247 -28 -8 -11 -11 -11 -18 1 -7 11 -38 12 -192 2 -101 -6 -222 -11
-269 -12 -118 0 -370 -21 -364 -30 2 -4 -3 -9 -11 -13 -8 -3 -15 -15 -15 -27
0 -21 2 -22 83 -15 133 11 449 28 484 27 23 -1 33 4 38 19 8 26 25 26 32 -1 5
-17 11 -19 42 -15 20 3 104 8 186 12 83 3 213 10 290 15 77 5 219 12 315 15
96 3 178 9 182 12 3 4 4 19 1 35 -5 27 -6 27 -82 27 -43 0 -81 -3 -85 -7z
m-1116 -73 c0 -5 -2 -10 -4 -10 -3 0 -8 5 -11 10 -3 6 -1 10 4 10 6 0 11 -4
11 -10z m180 0 c0 -5 -4 -10 -10 -10 -5 0 -10 5 -10 10 0 6 5 10 10 10 6 0 10
-4 10 -10z m-500 -40 c0 -5 -8 -10 -17 -10 -15 0 -16 2 -3 10 19 12 20 12 20
0z"/>
<path d="M3477 254 c-1 -1 -69 -5 -152 -9 -82 -4 -152 -8 -155 -10 -3 -2 -84
-6 -180 -10 -96 -5 -197 -9 -225 -11 -27 -2 -66 -5 -85 -5 -19 -1 -163 -8
-320 -15 -157 -7 -348 -16 -425 -19 -222 -8 -428 -27 -455 -41 -14 -7 -26 -22
-27 -33 -2 -25 10 -26 232 -10 193 14 218 15 410 22 133 4 496 24 764 41 45 3
67 9 73 20 11 20 28 21 28 1 0 -18 13 -19 260 -5 272 16 324 20 340 31 13 8
13 10 1 18 -12 8 -13 12 -1 26 12 15 9 16 -34 14 -25 -2 -47 -4 -49 -5z m-777
-64 c0 -5 -4 -10 -10 -10 -5 0 -10 5 -10 10 0 6 5 10 10 10 6 0 10 -4 10 -10z
m180 6 c0 -2 -7 -7 -16 -10 -8 -3 -12 -2 -9 4 6 10 25 14 25 6z m357 -12 c-3
-3 -12 -4 -19 -1 -8 3 -5 6 6 6 11 1 17 -2 13 -5z m-1727 -78 c0 -2 -7 -6 -15
-10 -8 -3 -15 -1 -15 4 0 6 7 10 15 10 8 0 15 -2 15 -4z"/>
<path d="M1245 134 c-88 -7 -237 -15 -332 -18 -214 -8 -454 -23 -461 -31 -3
-3 0 -11 6 -17 20 -20 14 -30 -16 -26 -22 2 -26 7 -24 27 l4 24 -114 -7 c-62
-4 -148 -9 -191 -13 l-77 -6 0 -33 c0 -32 2 -34 33 -34 19 0 36 2 39 5 3 3 66
8 139 10 77 3 135 9 137 15 2 5 8 10 13 10 6 0 7 -5 3 -11 -5 -9 14 -10 72 -5
43 3 173 11 289 16 216 11 245 15 258 34 5 8 9 7 15 -2 7 -10 46 -11 173 -7
189 6 216 13 216 56 0 16 -5 28 -11 28 -6 -1 -83 -7 -171 -15z"/>
</g>
</svg>
